<?xml version="1.0" standalone="no"?>
<!DOCTYPE svg PUBLIC "-//W3C//DTD SVG 20010904//EN"
 "http://www.w3.org/TR/2001/REC-SVG-20010904/DTD/svg10.dtd">
<svg version="1.0" xmlns="http://www.w3.org/2000/svg"
 width="96.000000pt" height="96.000000pt" viewBox="0 0 96.000000 96.000000"
 preserveAspectRatio="xMidYMid meet">
<metadata>
Created by potrace 1.14, written by Peter Selinger 2001-2017
</metadata>
<g transform="translate(0.000000,96.000000) scale(0.100000,-0.100000)"
fill="#000000" stroke="none">
<path d="M334 901 c-119 -40 -204 -116 -257 -229 -30 -62 -32 -75 -32 -173 0
-101 1 -108 38 -181 74 -151 220 -242 382 -239 58 1 93 7 131 22 26 9 43 0 44
-23 0 -16 17 -7 48 23 18 18 34 30 36 28 2 -2 16 -28 30 -57 29 -57 34 -58 99
-25 33 17 33 24 2 91 l-24 52 49 0 c27 0 52 5 56 11 3 6 -16 34 -44 62 l-51
52 20 59 c19 56 26 150 15 205 -28 134 -117 244 -245 304 -56 27 -79 31 -156
33 -63 2 -105 -3 -141 -15z m271 -46 c174 -73 272 -267 227 -447 -8 -33 -20
-58 -27 -58 -20 0 -22 18 -9 69 6 25 10 49 7 53 -2 4 -76 7 -163 7 l-160 0 0
-74 c0 -41 3 -75 8 -76 4 0 31 -2 61 -3 45 -1 55 2 61 19 4 11 12 31 17 44 6
17 8 2 6 -52 -2 -62 -7 -84 -29 -118 -22 -36 -23 -41 -8 -35 11 4 21 8 24 9 6
2 10 -8 10 -27 0 -23 -94 -48 -174 -48 -260 1 -441 259 -356 507 58 168 222
273 398 254 37 -4 85 -15 107 -24z m191 -555 l73 -69 -42 -3 c-49 -4 -50 -11
-12 -95 23 -51 23 -52 3 -58 -11 -4 -20 -5 -22 -3 -1 1 -13 27 -26 56 -13 29
-27 55 -31 58 -4 2 -21 -8 -38 -22 l-32 -26 2 136 1 136 26 -21 c14 -11 59
-51 98 -89z"/>
<path d="M402 825 c-20 -15 -72 -92 -72 -108 0 -4 25 -7 55 -7 l55 0 0 65 c0
36 -3 65 -8 65 -4 0 -17 -7 -30 -15z"/>
<path d="M480 775 l0 -65 55 0 c65 0 68 9 25 68 -26 36 -57 62 -74 62 -3 0 -6
-29 -6 -65z"/>
<path d="M279 791 c-24 -15 -55 -40 -69 -55 l-25 -27 48 3 c46 3 49 5 77 56
17 28 27 52 22 52 -4 0 -28 -13 -53 -29z"/>
<path d="M612 765 c29 -54 30 -55 75 -55 l46 0 -24 26 c-24 27 -106 84 -120
84 -4 0 6 -25 23 -55z"/>
<path d="M187 672 c-32 -4 -51 -38 -63 -111 l-7 -41 67 0 c61 0 66 2 67 23 2
36 8 80 13 103 5 18 1 22 -22 25 -15 2 -40 3 -55 1z"/>
<path d="M306 655 c-3 -8 -8 -42 -12 -75 l-6 -60 76 0 76 0 0 75 0 75 -64 0
c-48 0 -65 -4 -70 -15z"/>
<path d="M480 595 l0 -75 75 0 75 0 0 38 c0 20 -5 54 -11 75 l-10 37 -64 0
-65 0 0 -75z"/>
<path d="M653 656 c3 -8 9 -42 13 -75 l7 -61 67 0 68 0 -14 62 c-8 34 -20 68
-26 75 -16 19 -122 18 -115 -1z"/>
<path d="M123 440 c3 -21 13 -56 23 -77 17 -34 23 -38 57 -36 71 2 68 0 62 36
-3 17 -8 41 -10 52 -2 11 -4 30 -4 43 -1 20 -5 22 -67 22 l-67 0 6 -40z"/>
<path d="M294 418 c10 -88 14 -92 85 -93 l61 0 0 77 0 78 -76 0 -77 0 7 -62z"/>
<path d="M211 264 c24 -27 106 -84 120 -84 4 0 -6 25 -23 55 -29 54 -30 55
-75 55 l-46 0 24 -26z"/>
<path d="M330 280 c0 -31 76 -120 102 -120 5 0 8 29 8 65 l0 65 -55 0 c-31 0
-55 -5 -55 -10z"/>
<path d="M480 225 c0 -36 3 -65 6 -65 17 0 48 26 74 62 43 59 40 68 -25 68
l-55 0 0 -65z"/>
</g>
</svg>
